<svg xmlns="http://www.w3.org/2000/svg" viewBox="0 0 820 892" width="7.5in" height="8.16in" role="img" aria-label="The Wheel — Age II, Prehistoric, a spinner with 10 segments">
<style>text{font-family:Georgia,"Iowan Old Style",serif;fill:#1a1208}.seg{stroke:#1a1208;stroke-width:2.2}.ttl{font-size:26px;font-weight:700;text-anchor:middle}.note{font-size:14px;text-anchor:middle;fill:#4a3c28}</style>
<rect width="100%" height="100%" fill="#fbf7ef"/>
<text class="ttl" x="410.0" y="40">The Wheel — Age II, Prehistoric</text>
<path class="seg" d="M 410.00 466.00 L 410.00 106.00 A 360.00 360.00 0 0 1 621.60 174.75 Z" fill="#e59393"/>
<path class="seg" d="M 410.00 466.00 L 621.60 174.75 A 360.00 360.00 0 0 1 752.38 354.75 Z" fill="#e5be93"/>
<path class="seg" d="M 410.00 466.00 L 752.38 354.75 A 360.00 360.00 0 0 1 752.38 577.25 Z" fill="#e3e593"/>
<path class="seg" d="M 410.00 466.00 L 752.38 577.25 A 360.00 360.00 0 0 1 621.60 757.25 Z" fill="#b8e593"/>
<path class="seg" d="M 410.00 466.00 L 621.60 757.25 A 360.00 360.00 0 0 1 410.00 826.00 Z" fill="#93e598"/>
<path class="seg" d="M 410.00 466.00 L 410.00 826.00 A 360.00 360.00 0 0 1 198.40 757.25 Z" fill="#93e5c3"/>
<path class="seg" d="M 410.00 466.00 L 198.40 757.25 A 360.00 360.00 0 0 1 67.62 577.25 Z" fill="#93dde5"/>
<path class="seg" d="M 410.00 466.00 L 67.62 577.25 A 360.00 360.00 0 0 1 67.62 354.75 Z" fill="#93b3e5"/>
<path class="seg" d="M 410.00 466.00 L 67.62 354.75 A 360.00 360.00 0 0 1 198.40 174.75 Z" fill="#9e93e5"/>
<path class="seg" d="M 410.00 466.00 L 198.40 174.75 A 360.00 360.00 0 0 1 410.00 106.00 Z" fill="#c893e5"/>
<g transform="translate(410.0,466.0) rotate(-72.00)"><text x="46" y="0" font-size="18" text-anchor="start" dominant-baseline="middle">Mundane Terrain</text></g>
<g transform="translate(410.0,466.0) rotate(-36.00)"><text x="46" y="0" font-size="18" text-anchor="start" dominant-baseline="middle">Magical Terrain</text></g>
<g transform="translate(410.0,466.0) rotate(0.00)"><text x="46" y="0" font-size="18" text-anchor="start" dominant-baseline="middle">Dramatic Features</text></g>
<g transform="translate(410.0,466.0) rotate(36.00)"><text x="46" y="0" font-size="18" text-anchor="start" dominant-baseline="middle">Sources of Magic</text></g>
<g transform="translate(410.0,466.0) rotate(72.00)"><text x="46" y="0" font-size="18" text-anchor="start" dominant-baseline="middle">Peoples</text></g>
<g transform="translate(410.0,466.0) rotate(288.00)"><text x="-46" y="0" font-size="18" text-anchor="end" dominant-baseline="middle">Avatars</text></g>
<g transform="translate(410.0,466.0) rotate(324.00)"><text x="-46" y="0" font-size="18" text-anchor="end" dominant-baseline="middle">Significant Species</text></g>
<g transform="translate(410.0,466.0) rotate(360.00)"><text x="-46" y="0" font-size="18" text-anchor="end" dominant-baseline="middle">Significant Beings</text></g>
<g transform="translate(410.0,466.0) rotate(396.00)"><text x="-46" y="0" font-size="18" text-anchor="end" dominant-baseline="middle">Disasters</text></g>
<g transform="translate(410.0,466.0) rotate(432.00)"><text x="-46" y="0" font-size="18" text-anchor="end" dominant-baseline="middle">Events</text></g>
<circle cx="410.0" cy="466.0" r="34" fill="#fbf7ef" stroke="#1a1208" stroke-width="2.2"/>
<circle cx="410.0" cy="466.0" r="4.5" fill="#1a1208"/>
<path d="M 393.0 76.0 L 427.0 76.0 L 410.0 112.0 Z" fill="#1a1208"/>
<text class="note" x="410.0" y="882">Peoples emerge and legends begin.</text>
</svg>